<?xml version="1.0" encoding="UTF-8"?>
<svg width="453px" height="110px" viewBox="0 0 453 110" version="1.1" xmlns="http://www.w3.org/2000/svg" xmlns:xlink="http://www.w3.org/1999/xlink">
    <title>logo</title>
    <g id="Page-1" stroke="none" stroke-width="1" fill="none" fill-rule="evenodd">
        <g id="Artboard" transform="translate(-146.000000, -56.000000)" fill="#1A1919">
            <g id="logo" transform="translate(146.780000, 56.000000)">
                <path d="M211.26,52.957 L215.058,52.957 L215.058,58.852 C212.238,59.147 210.316,59.204 207.791,59.204 C202.054,59.204 199.917,57.05 199.917,51.233 L199.917,29.94 C199.917,25.074 201.192,22.437 207.791,22.437 C213.511,22.437 223.817,23.28 230.258,24.279 L233.491,24.779 L233.942,21.548 L236.058,6.123 L236.469,3.106 L233.47,2.527 C229.535,1.762 219.134,0 207.791,0 C187.79,0 175.845,10.175 175.845,27.238 L175.845,54.289 C175.845,71.097 188.088,81.536 207.791,81.536 C217.233,81.536 226.907,80.187 235.763,77.637 L238.075,76.952 L238.075,35.437 L211.26,35.437 L211.26,52.957 Z M452.153,23.259 L452.153,1.176 L396.386,1.176 L396.386,80.36 L452.153,80.36 L452.153,58.264 L420.48,58.264 L420.48,49.88 L447.004,49.88 L447.004,30.069 L420.48,30.069 L420.48,23.259 L452.153,23.259 Z M391.61,20.696 L392.179,19.87 L392.179,1.176 L332.998,1.176 L332.998,22.075 L361.891,22.075 L332.039,60.928 L331.468,61.75 L331.468,80.36 L392.763,80.36 L392.763,59.44 L362.07,59.44 L391.61,20.696 Z M303.754,80.36 L327.828,80.36 L327.828,1.176 L303.754,1.176 L303.754,80.36 Z M276.035,30.225 C271.023,29.032 267.421,28.168 266.34,27.287 C265.874,26.895 265.796,28.471 265.796,25.582 C265.796,22.066 265.796,21.605 272.233,21.605 C279.308,21.605 285.167,22.378 293.473,23.799 L296.801,24.368 L297.212,21.017 L298.974,6.179 L299.328,3.281 L296.466,2.664 C286.282,0.462 277.546,0 272.001,0 C249.907,0 241.702,6.807 241.702,25.112 C241.702,43.996 245.791,45.865 266.007,50.253 C270.555,51.263 274.745,52.251 276.014,53.339 C276.549,53.779 276.684,51.819 276.684,55.004 C276.684,59.362 276.684,60.144 269.067,60.144 C262.129,60.144 255.45,59.027 247.401,56.531 L244.048,55.484 L239.822,75.112 L242.168,76.168 C249.517,79.538 259.482,81.536 268.829,81.536 C292.099,81.536 300.761,74.366 300.761,55.111 C300.761,37.707 298.329,35.553 276.035,30.225 Z M149.597,41.42 L128.772,3.01 L127.911,1.176 L102.133,1.176 L102.133,80.36 L125.405,80.36 L125.405,42.046 L146.128,78.56 L147.009,80.36 L172.867,80.36 L172.867,1.176 L149.597,1.176 L149.597,41.42 Z M73.788,80.36 L97.881,80.36 L97.881,1.176 L73.788,1.176 L73.788,80.36 Z M45.894,39.911 L66.992,5.985 L69.754,1.176 L42.408,1.176 L41.488,2.833 L24.074,31.538 L24.074,1.176 L2.84217094e-14,1.176 L2.84217094e-14,80.36 L24.074,80.36 L24.074,48.118 L43.153,78.735 L44.092,80.36 L71.479,80.36 L68.617,75.502 L45.894,39.911 L45.894,39.911 Z" id="Fill-1"></path>
                <path d="M72.888,92.214 L67.283,109.527 L70.02,109.527 L71.442,104.985 L77.227,104.985 L78.673,109.527 L82.056,109.527 L76.322,92.214 L72.888,92.214 Z M74.231,95.718 L76.478,102.675 L72.113,102.675 L74.231,95.718 L74.231,95.718 Z" id="Fill-5"></path>
                <polyline id="Fill-6" points="12.913 92.214 8.729 104.439 4.417 92.214 2.84217094e-14 92.214 2.84217094e-14 109.527 2.582 109.527 2.582 95.329 7.387 109.527 9.505 109.527 14.308 95.329 14.308 109.527 17.304 109.527 17.304 92.214 12.913 92.214"></polyline>
                <path d="M202.004,92.214 L196.399,109.527 L199.136,109.527 L200.558,104.985 L206.343,104.985 L207.789,109.527 L211.172,109.527 L205.439,92.214 L202.004,92.214 Z M203.347,95.718 L205.594,102.675 L201.229,102.675 L203.347,95.718 L203.347,95.718 Z" id="Fill-7"></path>
                <polyline id="Fill-8" points="261.641 92.214 261.641 94.758 269.932 94.758 261.151 107.191 261.151 109.527 274.013 109.527 274.013 107.009 264.921 107.009 273.729 94.343 273.729 92.214 261.641 92.214"></polyline>
                <polygon id="Fill-9" points="323.992 109.527 327.168 109.527 327.168 92.214 323.992 92.214"></polygon>
                <path d="M379.833,109.527 L379.833,98.184 C379.833,97.561 379.807,97.068 379.781,96.419 C379.781,96.419 380.349,97.457 380.582,97.794 L387.659,109.527 L390.5,109.527 L390.5,92.214 L387.813,92.214 L387.813,102.104 C387.813,103.142 387.813,103.661 387.865,104.284 C387.865,104.284 387.375,103.35 387.142,102.986 L380.608,92.214 L377.147,92.214 L377.147,109.527 L379.833,109.527" id="Fill-10"></path>
                <polyline id="Fill-11" points="440.479 92.214 440.479 109.527 452.153 109.527 452.153 107.009 443.629 107.009 443.629 101.818 449.776 101.818 449.776 99.378 443.629 99.378 443.629 94.784 451.997 94.784 451.997 92.214 440.479 92.214"></polyline>
                <path d="M139.215,109.604 C141.436,109.604 142.986,108.929 144.096,107.476 L144.69,109.371 L146.42,109.371 L146.42,100.753 L139.551,100.753 L139.551,103.141 L143.347,103.141 C143.347,103.219 143.347,103.504 143.321,103.842 C143.192,105.866 141.668,107.139 139.602,107.139 C136.916,107.139 135.393,105.01 135.393,100.676 C135.393,96.6 136.813,94.238 139.602,94.238 C141.616,94.238 142.83,95.77 143.27,97.69 L146.317,97.015 C145.413,93.641 143.347,91.694 139.757,91.694 C134.798,91.694 132.035,95.147 132.035,100.883 C132.035,106.464 134.85,109.604 139.215,109.604" id="Fill-12"></path>
            </g>
        </g>
    </g>
</svg>