<?xml version="1.0" encoding="UTF-8"?>
<svg id="Layer_1" data-name="Layer 1" xmlns="http://www.w3.org/2000/svg" viewBox="0 0 423.28 343.57">
  <defs>
    <style>
      .cls-1 {
        fill: #29292d;
        stroke: #29292d;
        stroke-miterlimit: 10;
        stroke-width: 4px;
      }
    </style>
  </defs>
  <g>
    <path class="cls-1" d="M62.88,34.17c-20.74,0-39.06,10.64-45.31,25.65l18.93,8.93c4.23-9.5,13.69-15.96,25.77-15.96,13.09,0,21.75,7.22,21.75,17.29v3.99l-34.63,5.32c-25.17,3.99-36.85,16.15-36.85,32.68,0,17.86,14.9,29.45,37.05,29.45,15.1,0,27.18-5.13,35.44-14.25v11.97h21.75v-69.15c0-21.28-18.12-35.9-43.89-35.9ZM51.85,134.24c-12.89,0-24.86-9.95-23.24-23.24s10.86-19.01,23.24-23.16c15.5-5.2,36.8-7.41,30.26,23.84-2.89,13.82-17.53,22.56-30.26,22.56Z"/>
    <path class="cls-1" d="M141.69,29.79h0v13.89c5.64-10.87,15.7-15.3,28.99-15.3h6.65v20.74h-9.46c-15.1,0-25.17,9.67-25.17,26.78v62.82h-22.75V51.53c0-12.01,9.74-21.75,21.75-21.75Z"/>
    <path class="cls-1" d="M204.65,100.26v-52.75h-19.13v-20.54h3.02c10.07,0,16.11-6.24,16.11-16.51V2h0c12.57,0,22.75,10.19,22.75,22.75v2.22h24.77v20.54h-24.77v51.75c0,11.07,5.03,17.72,18.12,17.72,2.02,0,4.83-.2,7.45-.6v19.53c-3.62.6-8.66,1.21-12.28,1.21-22.95,0-36.04-13.49-36.04-36.85Z"/>
    <path class="cls-1" d="M266.15,28.18h0c12.57,0,22.75,10.19,22.75,22.75v86.18h-22.75V28.18Z"/>
    <path class="cls-1" d="M372.96,140.43l.2-66.35c0-16.11-9.87-25.97-24.16-25.97s-24.16,9.87-24.16,25.97v64.23h-22.75V29.38h8.46c7.34,0,13.29,5.95,13.29,13.29h0c6.24-10.27,17.32-15.7,30.81-15.7,23.76,0,41.08,16.91,41.08,40.87v74.44-3.96"/>
    <path class="cls-1" d="M2,142.08h0c12.57,0,22.75,10.19,22.75,22.75v32.42c6.24-9.06,16.91-14.1,29.8-14.1,23.76,0,41.08,16.91,41.08,40.87v70.47h-22.55v-64.23c0-16.11-10.07-25.98-24.16-25.98s-24.16,9.87-24.16,25.98v64.23s-22.75,0-22.75,0v-152.42Z"/>
    <path class="cls-1" d="M162.47,186.65c-32.01,0-56.98,23.96-56.98,56.78s25.37,56.98,56.98,56.98,56.78-23.76,56.78-56.98-24.97-56.78-56.78-56.78ZM162.37,276.7c-18.32,0-33.17-14.85-33.17-33.17s14.85-33.17,33.17-33.17,33.17,14.85,33.17,33.17-14.85,33.17-33.17,33.17Z"/>
    <path class="cls-1" d="M205.14,340.56v-19.73c2.62.4,5.23.6,7.65.6,11.28,0,18.52-5.84,18.52-17.32v-115.98h0c12.57,0,22.75,10.19,22.75,22.75v93.23c0,24.16-16.11,37.45-39.47,37.45-2.82,0-7.05-.4-9.46-1.01Z"/>
    <path class="cls-1" d="M372.96,170.37v-29.94M395.71,140.43h0v30.01h4.57c11.16,0,20.2,9.04,20.2,20.2v4.48h-24.77v62.19c0,13.31,5.03,21.29,18.12,21.29,2.02,0,4.83-.24,7.45-.73v23.47c-3.62.73-8.66,1.45-12.28,1.45-22.95,0-36.04-16.22-36.04-44.29v-63.4h-19.13v-24.33s21.23-.07,21.23-.07"/>
    <rect class="cls-1" x="372.96" y="131.1" width="22.75" height="57.03"/>
  </g>
  <path class="cls-1" d="M314,193.08c-20.74,0-39.06,10.64-45.31,25.65l18.93,8.93c4.23-9.5,13.69-15.96,25.77-15.96,13.09,0,21.75,7.22,21.75,17.29v3.99l-34.63,5.32c-25.17,3.99-36.85,16.15-36.85,32.68,0,17.86,14.9,29.45,37.05,29.45,15.1,0,27.18-5.13,35.44-14.25v11.97h21.75v-69.15c0-21.28-18.12-35.9-43.89-35.9ZM302.97,293.15c-12.89,0-24.86-9.95-23.24-23.24s10.86-19.01,23.24-23.16c15.5-5.2,36.8-7.41,30.26,23.84-2.89,13.82-17.53,22.56-30.26,22.56Z"/>
</svg>